<svg width="290" height="366" xmlns="http://www.w3.org/2000/svg"><g fill="none" fill-rule="evenodd"><path d="M5 43h280v280H5z"/><path d="M205.53 242.48c4.84 12.2 14.02 14.25 27.53 6.16 20.26-12.13 33-21.06 36.87-25.37 3.88-4.3 18.53-6.01 13.1 19.07-5.41 25.07-71.76 83.6-104.16 18.44 6.48-10.53 15.37-16.63 26.66-18.3z" fill="#07F"/><path d="M205.53 242.48c4.84 12.2 14.02 14.25 27.53 6.16 20.26-12.13 33-21.06 36.87-25.37 3.88-4.3 18.53-6.01 13.1 19.07-5.41 25.07-71.76 83.6-104.16 18.44 6.48-10.53 15.37-16.63 26.66-18.3z" fill="#000" opacity=".25"/><path d="M195.47 252.06c5.7 23.42 14.58 35.13 26.63 35.13 18.09 0 26.9-8.23 32.72-12.1 5.83-3.87 22.62-3.79 16.5 12.1-6.11 15.9-27.35 35.21-55.56 35.21-28.2 0-81.36-27.9-62.97-57.6 17.23-5.34 31.46-9.59 42.68-12.74z" fill="#07F"/><path d="M195.47 252.06c5.7 23.42 14.58 35.13 26.63 35.13 18.09 0 26.9-8.23 32.72-12.1 5.83-3.87 22.62-3.79 16.5 12.1-6.11 15.9-27.35 35.21-55.56 35.21-28.2 0-81.36-27.9-62.97-57.6 17.23-5.34 31.46-9.59 42.68-12.74z" fill="#000" opacity=".05"/><g><path d="M84.17 242.48c-4.84 12.2-14.02 14.25-27.53 6.16-20.26-12.13-33-21.06-36.87-25.37-3.88-4.3-18.53-6.01-13.1 19.07 5.41 25.07 71.76 83.6 104.16 18.44-6.48-10.53-15.37-16.63-26.66-18.3z" fill="#07F"/><path d="M84.17 242.48c-4.84 12.2-14.02 14.25-27.53 6.16-20.26-12.13-33-21.06-36.87-25.37-3.88-4.3-18.53-6.01-13.1 19.07 5.41 25.07 71.76 83.6 104.16 18.44-6.48-10.53-15.37-16.63-26.66-18.3z" fill="#000" opacity=".25"/><path d="M94.23 252.06c-5.7 23.42-14.58 35.13-26.63 35.13-18.09 0-26.9-8.23-32.72-12.1-5.83-3.87-22.62-3.79-16.5 12.1 6.11 15.9 27.35 35.21 55.56 35.21 28.2 0 81.36-27.9 62.97-57.6a1751.82 1751.82 0 00-42.68-12.74z" fill="#07F"/><path d="M94.23 252.06c-5.7 23.42-14.58 35.13-26.63 35.13-18.09 0-26.9-8.23-32.72-12.1-5.83-3.87-22.62-3.79-16.5 12.1 6.11 15.9 27.35 35.21 55.56 35.21 28.2 0 81.36-27.9 62.97-57.6a1751.82 1751.82 0 00-42.68-12.74z" fill="#000" opacity=".05"/></g><g transform="translate(37.04 43)"><ellipse fill="#07F" cx="108.58" cy="116.04" rx="93.33" ry="116.04"/><path d="M109.3 217.78c24.8 0 56.19-24.27 45.1-24.27H64.58c-12.2 0 19.92 24.27 44.72 24.27z" fill="#333"/><path d="M88.36 213.37c14.05-2.28 24.4-1.22 31.05 3.2-9.61 2.27-19.96 1.2-31.05-3.2z" fill="#EF8285"/><path d="M140 199.73H78.4a6.53 6.53 0 01-6.53-6.22h74.66a6.53 6.53 0 01-6.53 6.22z" fill="#FFF"/><path d="M107.48 0l1.72.01c-15.84 5.31-30.93 15.27-44 28.93a6.65 6.65 0 11-8.01 9.19 145.7 145.7 0 00-6.88 9.36 2.21 2.21 0 11-2.24 3.4c-15.83 24.85-25.97 56.67-26.35 92.5h18.02c-4.12.01-10.6.2-18.03 3.41.02 3.3.13 6.64.32 10-.99-3.15-1.86-6.28-2.62-9.4-.97-3-.97-4.01-.97-4.01h.04C1.38 64.26 55.04-1.03 109.2 0zm91.45 145.53l-1.51 6.3c-4.86-2.4-10.48-3.9-16.87-4.48.96-.7 7.09-1.32 18.38-1.82zM59.3 82.9a3.87 3.87 0 11-.01 7.75 3.87 3.87 0 010-7.75zm0 2.22a1.66 1.66 0 100 3.32 1.66 1.66 0 000-3.32zM48.8 64.07a6.64 6.64 0 11-.02 13.28 6.64 6.64 0 01.02-13.28zm0 2.22a4.43 4.43 0 100 8.85 4.43 4.43 0 000-8.85zm22.65-18.84c6.41 0 11.6 5.21 11.6 11.64 0 6.42-5.19 11.63-11.6 11.63-6.4 0-11.6-5.21-11.6-11.63 0-6.43 5.2-11.64 11.6-11.64z" fill="#000" opacity=".05"/><g transform="rotate(41 -77.99 301.6)"><ellipse fill="#07F" transform="rotate(-19 35.6 37.32)" cx="35.6" cy="37.32" rx="27.12" ry="29.85"/><g transform="rotate(-19 78.18 -51.1)"><ellipse fill="#FFF" cx="14.07" cy="17.58" rx="14.07" ry="17.58"/><ellipse fill="#07F" opacity=".4" cx="14.07" cy="17.58" rx="9.1" ry="10.18"/><ellipse fill="#333" cx="14.07" cy="17.58" rx="5.79" ry="6.48"/><ellipse fill="#FFF" cx="9.1" cy="11.57" rx="3.72" ry="4.16"/></g></g><g transform="translate(0 135.96)"><ellipse fill="#07F" transform="rotate(-19 36.27 39.32)" cx="36.27" cy="39.32" rx="27.03" ry="32.08"/><g transform="rotate(-19 88.49 -21.58)"><ellipse fill="#FFF" cx="16.86" cy="18.9" rx="16.86" ry="18.9"/><ellipse fill="#07F" opacity=".4" cx="16.86" cy="18.9" rx="10.91" ry="10.94"/><ellipse fill="#333" cx="16.86" cy="18.9" rx="6.94" ry="6.96"/><ellipse fill="#FFF" cx="10.91" cy="12.44" rx="4.46" ry="4.48"/></g></g><g fill="#FFF" fill-rule="nonzero" opacity=".1"><path d="M135.06 19.84c21.82 13.98 37.73 35.65 47.74 64.83a5.02 5.02 0 01-9.5 3.24c-9.3-27.14-23.86-46.96-43.66-59.66a5 5 0 01-1.5-6.9c1.49-2.33 4.6-3 6.92-1.5zm-22.78-8.02a5.57 5.57 0 11.02 11.13 5.57 5.57 0 01-.02-11.13z"/></g></g></g></svg>